<?xml version="1.0" encoding="utf-8"?>
<!-- Generator: Adobe Illustrator 27.0.0, SVG Export Plug-In . SVG Version: 6.00 Build 0)  -->
<svg version="1.1" id="Layer_1" xmlns="http://www.w3.org/2000/svg" xmlns:xlink="http://www.w3.org/1999/xlink" x="0px" y="0px"
	 viewBox="0 0 36 36" style="enable-background:new 0 0 36 36;" xml:space="preserve">
<style type="text/css">
	.st0{fill:#FAB90D;}
	.st1{fill:#FFCE46;}
	.st2{fill:#FCC433;}
</style>
<g>
	<path class="st0" d="M10.2,14.9L10.2,14.9c-0.1-0.1-7.4-5.6-4.6-12.8c0.2-0.5,0.8-0.8,1.3-0.6c0.5,0.2,0.8,0.8,0.6,1.3
		c-2.2,5.7,3.8,10.4,3.9,10.4c0.4,0.3,0.5,1,0.2,1.4C11.2,15.1,10.6,15.2,10.2,14.9z M25,14.5L25,14.5c-0.1-0.1-7.4-5.6-4.6-12.8
		c0.2-0.5,0.8-0.8,1.3-0.6c0.5,0.2,0.8,0.8,0.6,1.3c-2.2,5.7,3.8,10.4,3.9,10.4c0.4,0.3,0.5,1,0.2,1.4C26,14.7,25.4,14.8,25,14.5z"
		/>
	<path class="st0" d="M11,14.5L11,14.5c0.1-0.1,7.4-5.6,4.6-12.8c-0.2-0.5-0.8-0.8-1.3-0.6c-0.5,0.2-0.8,0.8-0.6,1.3
		C16,8.2,9.9,12.8,9.9,12.9c-0.4,0.3-0.5,1-0.2,1.4C10,14.7,10.6,14.8,11,14.5z M1.9,22.4c-0.1,0-0.3-0.1-0.4-0.2
		c-0.4-0.3-0.5-1-0.2-1.4c4.4-6,12.3-5.5,12.6-5.4c0.5,0.1,1,0.5,0.9,1.1c0,0.5-0.5,1-1.1,0.9c-0.1,0-7.1-0.5-10.9,4.6
		C2.6,22.3,2.2,22.4,1.9,22.4z M5.6,34.3c-0.1,0.1-0.3,0.1-0.4,0.1c-0.6,0-1-0.4-1.1-0.9c-0.6-7.5,5.8-12.2,6.1-12.4
		c0.4-0.3,1.1-0.2,1.4,0.2c0.3,0.4,0.2,1.1-0.2,1.4c-0.1,0-5.7,4.3-5.2,10.6C6.2,33.8,6,34.2,5.6,34.3z M25.8,14.9L25.8,14.9
		c0.1-0.1,7.4-5.6,4.6-12.8c-0.2-0.5-0.8-0.8-1.3-0.6c-0.5,0.2-0.8,0.8-0.6,1.3c2.2,5.7-3.8,10.4-3.9,10.4c-0.4,0.3-0.5,1-0.2,1.4
		C24.7,15.1,25.3,15.2,25.8,14.9z"/>
	<path class="st0" d="M34.1,22.4c0.1,0,0.3-0.1,0.4-0.2c0.4-0.3,0.5-1,0.2-1.4c-4.4-6-12.3-5.5-12.6-5.4c-0.5,0.1-1,0.5-0.9,1.1
		c0,0.5,0.5,1,1.1,0.9c0.1,0,7.1-0.5,10.9,4.6C33.3,22.3,33.7,22.4,34.1,22.4z M30.3,34.3c0.1,0.1,0.3,0.1,0.4,0.1
		c0.6,0,1-0.4,1.1-0.9c0.6-7.5-5.8-12.2-6.1-12.4c-0.4-0.3-1.1-0.2-1.4,0.2c-0.3,0.4-0.2,1.1,0.2,1.4c0.1,0,5.7,4.3,5.2,10.6
		C29.8,33.8,30,34.2,30.3,34.3z"/>
</g>
<path class="st1" d="M24.2,7.8C24.2,5.1,22,3,18,3c-3.9,0-6.2,2.1-6.2,4.8C9,9.6,7.3,12.7,7.3,17c0,7.2,4.8,16.9,10.7,16.9
	S28.7,24.2,28.7,17C28.7,12.7,26.9,9.6,24.2,7.8z"/>
<path class="st2" d="M9,10.6c-1.1,1.7-1.7,3.8-1.7,6.4c0,7.2,4.8,16.9,10.7,16.9S28.7,24.2,28.7,17c0-2.6-0.6-4.7-1.7-6.4
	c-2.4-0.4-5.4-0.6-9-0.6C14.4,10,11.4,10.2,9,10.6z"/>
<path class="st0" d="M11.7,7.8c0,0,2.9-0.8,6.4-0.8s6.1,0.8,6.1,0.8S24.3,3,18,3S11.7,7.8,11.7,7.8z"/>
<path class="st1" d="M16.2,35c-5.8-0.6-10.3-6.9-10.3-14.6c0-7.7,4.4-8,9.1-8c1.4,0,2.1,0.6,2.1,2.9v18.5C17.1,35,16.5,35,16.2,35z
	 M19.6,35c5.8-0.6,10.3-6.9,10.3-14.6c0-7.7-4.4-8-9.1-8c-1.4,0-2.1,0.6-2.1,2.9v18.5C18.7,35,19.3,35,19.6,35z"/>
<path class="st2" d="M14.9,33.4c-0.3,0-0.7-0.2-0.8-0.5c-5.9-9.3-3.2-19.8-2.9-21c0.1-0.5,0.7-0.8,1.2-0.7c0.5,0.1,0.8,0.7,0.7,1.2
	c-0.3,1.1-2.8,10.9,2.6,19.4c0.3,0.5,0.2,1.1-0.3,1.4C15.3,33.3,15.1,33.4,14.9,33.4z M20.9,33.4c-0.2,0-0.4-0.1-0.5-0.2
	c-0.5-0.3-0.6-0.9-0.3-1.4c4.4-6.9,3.7-15.4,2.6-19.4c-0.1-0.5,0.2-1.1,0.7-1.2c0.5-0.1,1.1,0.2,1.2,0.7c0.3,1.2,3.1,11.8-2.9,21
	C21.6,33.2,21.2,33.4,20.9,33.4z"/>
<path class="st2" d="M10,10.8h16v3H10V10.8z"/>
<path class="st1" d="M6.4,16.5c0.4-1.4,1.4-2.8,2.6-3.7c1.1-0.8,2.1-0.7,1.8,0.7C9.9,17.9,5.8,18.4,6.4,16.5z M12.9,13.6
	c0.6-1.7,3.6-1.9,4,0.1c0.4,1.9-1,2.1-2.2,2S12.4,15,12.9,13.6z M29.3,16.5c-0.4-1.4-1.4-2.8-2.6-3.7c-1.1-0.8-2.1-0.7-1.8,0.7
	C25.9,17.9,30,18.4,29.3,16.5z M22.9,13.6c-0.6-1.7-3.6-1.9-4,0.1c-0.4,1.9,1,2.1,2.2,2C22.3,15.6,23.4,15,22.9,13.6z"/>
</svg>
