<?xml version="1.0" encoding="utf-8"?>
<!-- Generator: Adobe Illustrator 27.0.0, SVG Export Plug-In . SVG Version: 6.00 Build 0)  -->
<svg version="1.1" id="Layer_1" xmlns="http://www.w3.org/2000/svg" xmlns:xlink="http://www.w3.org/1999/xlink" x="0px" y="0px"
	 viewBox="0 0 36 36" style="enable-background:new 0 0 36 36;" xml:space="preserve">
<style type="text/css">
	.st0{fill:#8A5EAC;}
	.st1{fill:none;stroke:#8A5EAC;stroke-width:3;stroke-miterlimit:10;}
</style>
<path class="st0" d="M34,15h-3.4c-0.3-1.4-0.9-2.7-1.6-3.8l2.4-2.4c0.8-0.8,0.8-2,0-2.8L30,4.6c-0.8-0.8-2-0.8-2.8,0l-2.4,2.4
	c-1.2-0.7-2.4-1.3-3.8-1.6V2c0-1.1-0.9-2-2-2h-2c-1.1,0-2,0.9-2,2v3.4c-1.4,0.3-2.7,0.9-3.8,1.6L8.8,4.6C8,3.8,6.8,3.8,6,4.6L4.6,6
	c-0.8,0.8-0.8,2,0,2.8l2.4,2.4c-0.7,1.2-1.3,2.4-1.6,3.8H2c-1.1,0-2,0.9-2,2v2c0,1.1,0.9,2,2,2h3.4c0.3,1.4,0.9,2.6,1.6,3.8
	l-2.4,2.4c-0.8,0.8-0.8,2,0,2.8L6,31.4c0.8,0.8,2,0.8,2.8,0l2.4-2.4c1.2,0.7,2.4,1.3,3.8,1.6V34c0,1.1,0.9,2,2,2h2c1.1,0,2-0.9,2-2
	v-3.4c1.4-0.3,2.6-0.9,3.8-1.6l2.4,2.4c0.8,0.8,2,0.8,2.8,0l1.4-1.4c0.8-0.8,0.8-2,0-2.8l-2.4-2.4c0.7-1.2,1.3-2.4,1.6-3.8H34
	c1.1,0,2-0.9,2-2v-2C36,15.9,35.1,15,34,15z M18,26c-4.4,0-8-3.6-8-8s3.6-8,8-8s8,3.6,8,8S22.4,26,18,26z"/>
<circle class="st1" cx="18" cy="18" r="6.9"/>
</svg>
