<?xml version="1.0" encoding="utf-8"?>
<!-- Generator: Adobe Illustrator 27.0.0, SVG Export Plug-In . SVG Version: 6.00 Build 0)  -->
<svg version="1.1" id="Layer_1" xmlns="http://www.w3.org/2000/svg" xmlns:xlink="http://www.w3.org/1999/xlink" x="0px" y="0px"
	 viewBox="0 0 36 36" style="enable-background:new 0 0 36 36;" xml:space="preserve">
<style type="text/css">
	.st0{fill:#C6E5B3;}
	.st1{fill:#448952;}
	.st2{fill:#FFFFFF;}
	.st3{fill:#292F33;}
</style>
<path class="st0" d="M36,22c0,7.5-8.1,12-18,12S0,29.5,0,22S8.1,7,18,7S36,14.5,36,22z"/>
<path class="st1" d="M31.8,12.7C33.1,11.6,34,9.9,34,8c0-3.3-2.7-6-6-6c-2.9,0-5.2,2-5.9,4.7c-1.3-0.5-2.7-0.8-4.1-0.8
	c-1.5,0-2.9,0.3-4.1,0.8C13.2,4,10.9,2,8,2C4.7,2,2,4.7,2,8c0,1.9,0.9,3.6,2.2,4.7C1.6,15.4,0,18.7,0,22c0,7.5,8.1,1,18,1
	s18,6.5,18-1C36,18.7,34.4,15.4,31.8,12.7z"/>
<circle class="st2" cx="7.5" cy="7.5" r="3.5"/>
<circle class="st3" cx="7.5" cy="7.5" r="1.5"/>
<circle class="st2" cx="28.5" cy="7.5" r="3.5"/>
<circle class="st3" cx="28.5" cy="7.5" r="1.5"/>
</svg>
