<?xml version="1.0" encoding="utf-8"?>
<!-- Generator: Adobe Illustrator 27.0.0, SVG Export Plug-In . SVG Version: 6.00 Build 0)  -->
<svg version="1.1" id="Layer_1" xmlns="http://www.w3.org/2000/svg" xmlns:xlink="http://www.w3.org/1999/xlink" x="0px" y="0px"
	 viewBox="0 0 36 36" style="enable-background:new 0 0 36 36;" xml:space="preserve">
<style type="text/css">
	.st0{fill:#F1A9AF;}
	.st1{fill:#E2505C;}
	.st2{fill:#F7CED1;}
</style>
<path class="st0" d="M36,27c0,2.2-1.8,4-4,4H4c-2.2,0-4-1.8-4-4V9c0-2.2,1.8-4,4-4h28c2.2,0,4,1.8,4,4V27z"/>
<path class="st1" d="M11.9,17.6L0.6,28.9c0,0,0,0.1-0.1,0.1c0.3,0.6,0.8,1,1.4,1.4c0,0,0.1,0,0.1-0.1L13.4,19c0.4-0.4,0.4-1,0-1.4
	C13,17.2,12.3,17.2,11.9,17.6 M35.4,29C35.4,29,35.4,29,35.4,29L24.1,17.6c-0.4-0.4-1-0.4-1.4,0c-0.4,0.4-0.4,1,0,1.4l11.3,11.3
	c0,0,0.1,0,0.1,0.1C34.6,30.1,35.1,29.6,35.4,29"/>
<path class="st1" d="M32,5H4C1.8,5,0,6.8,0,9v1l14.5,14.5c1.9,1.9,5,1.9,6.9,0L36,10V9C36,6.8,34.2,5,32,5z"/>
<path class="st2" d="M32,5H4C2.4,5,1.1,5.9,0.4,7.3L15.2,22c1.6,1.6,4.1,1.6,5.7,0L35.6,7.3C34.9,5.9,33.6,5,32,5z"/>
</svg>
