<?xml version="1.0" encoding="utf-8"?>
<!-- Generator: Adobe Illustrator 27.0.0, SVG Export Plug-In . SVG Version: 6.00 Build 0)  -->
<svg version="1.1" id="Layer_1" xmlns="http://www.w3.org/2000/svg" xmlns:xlink="http://www.w3.org/1999/xlink" x="0px" y="0px"
	 viewBox="0 0 36 36" style="enable-background:new 0 0 36 36;" xml:space="preserve">
<style type="text/css">
	.st0{fill:#D9843B;}
	.st1{fill:#DB8C46;}
	.st2{fill:#F3D8C0;}
	.st3{fill:#E19F66;}
</style>
<path class="st0" d="M14.6,27.7c2.8-1.7,6.6-3.8,9.9-7.1c7-7,12.7-17,11.3-18.4c-1.4-1.4-11.4,4.3-18.4,11.3
	c-3.3,3.3-5.4,7.1-7.1,9.9C10.3,23.4,14.6,27.7,14.6,27.7z"/>
<path class="st1" d="M0.4,34.7c0,0,7.1,1.4,12-3.5c2.1-2.1,2.1-4.9,2.1-4.9l-2.8-2.8c0,0-3.5,0.7-4.9,2.1c-1.4,1.4-2.5,4.2-2.9,5.6
	C3.2,33.7,0.4,34.7,0.4,34.7z"/>
<path class="st2" d="M17.9,25.3l-5.2-5.2c-0.4-0.4-1-0.3-1.3,0.1L10.3,22c-0.3,0.5-0.3,1.1,0.1,1.5l4.1,4.1c0.4,0.4,1,0.4,1.5,0.1
	l1.7-1.1C18.2,26.3,18.3,25.7,17.9,25.3z"/>
<path class="st3" d="M11.2,32.3C10,33,9.4,32.4,9.6,31.7c0.2-0.8-0.1-1.6-1.2-1.4c-1.1,0.2-1.9-0.4-1.5-1.8c0.3-1.4-1.1-1.9-1.8-0.4
	c-0.6,1.2-1,2.4-1.2,3.1c-0.7,2.5-3.5,3.6-3.5,3.6S6.4,35.9,11.2,32.3z"/>
</svg>
