<?xml version="1.0" encoding="utf-8"?>
<!-- Generator: Adobe Illustrator 27.1.1, SVG Export Plug-In . SVG Version: 6.00 Build 0)  -->
<svg version="1.1" id="Layer_1" xmlns="http://www.w3.org/2000/svg" xmlns:xlink="http://www.w3.org/1999/xlink" x="0px" y="0px"
	 viewBox="0 0 36 36" style="enable-background:new 0 0 36 36;" xml:space="preserve">
<style type="text/css">
	.st0{fill:#CCD6DD;}
	.st1{fill:#55ACEE;}
	.st2{fill:#226699;}
</style>
<path class="st0" d="M30.8,5.2C24.8,2.6,18,2.6,18,2.6s-6.8,0-12.8,2.6C2.6,18,5.2,29.1,18,33.4C30.8,29.1,33.4,18,30.8,5.2z"/>
<path class="st1" d="M18,31.6C8.1,28,4.3,19.6,6.7,6.4C12.1,4.4,17.9,4.3,18,4.3c0.1,0,5.9,0,11.3,2.1C31.7,19.6,27.9,28,18,31.6z"
	/>
<path class="st2" d="M29.3,6.4C23.9,4.4,18.1,4.3,18,4.3v27.2C27.9,28,31.7,19.6,29.3,6.4z"/>
</svg>
