<?xml version="1.0" encoding="utf-8"?>
<!-- Generator: Adobe Illustrator 27.0.0, SVG Export Plug-In . SVG Version: 6.00 Build 0)  -->
<svg version="1.1" id="Layer_1" xmlns="http://www.w3.org/2000/svg" xmlns:xlink="http://www.w3.org/1999/xlink" x="0px" y="0px"
	 viewBox="0 0 36 36" style="enable-background:new 0 0 36 36;" xml:space="preserve">
<style type="text/css">
	.st0{fill:#6AC1C2;}
	.st1{fill:#76C6C7;}
	.st2{fill:#58B9BB;}
</style>
<path class="st0" d="M34.2,6.3l-2.7,2.7c0,0-1.8,0.9-3.7-0.9c-1.8-1.8-0.9-3.7-0.9-3.7l2.7-2.7c0.9-0.9-0.2-1.8-1-1.8
	c-4.1,0-7.3,3.3-7.3,7.3c0,0.6,0.1,1.1,0.2,1.7l-6.2,6.2l5.5,5.5l6.2-6.2c0.5,0.1,1.1,0.2,1.7,0.2c4,0,7.3-3.3,7.3-7.3
	C36,6.5,35.2,5.4,34.2,6.3z M15.2,15.4L3,27.6C1.5,29,1.5,31.5,3,33c1.5,1.5,3.9,1.5,5.4,0l12.2-12.2C20.6,20.8,15.2,15.4,15.2,15.4
	z M5.8,31.8c-0.8,0-1.5-0.7-1.5-1.5s0.7-1.5,1.5-1.5c0.8,0,1.5,0.7,1.5,1.5C7.2,31.2,6.6,31.8,5.8,31.8z"/>
<path class="st1" d="M30.8,33.3c1.2,1.2,3,1.2,4.1,0.1c1.1-1.1,1-3-0.1-4.1L11.6,6c-1.2-1.2-3-1.2-4.1-0.1s-1,3,0.1,4.1L30.8,33.3z"
	/>
<path class="st2" d="M21.4,0.9c0,0-6-3-11,2l-7,7c0,0-1-1-2,0l-1,1c0,0-1,1,0,2l4,4c0,0,1,1,2,0l1-1c0,0,1-1,0-2l-0.1-0.1
	c0.8-0.7,1.9-1.5,3.1-0.9l4-4c0,0-1-3,1-5s3-2,5-2S21.4,0.9,21.4,0.9z"/>
</svg>
